<mxfile host="app.diagrams.net" modified="2021-11-25T15:29:18.381Z" agent="5.0 (X11; Linux x86_64) AppleWebKit/537.36 (KHTML, like Gecko) Chrome/95.0.4638.69 Safari/537.36" etag="ytg8KlK9NZ1zMPI5IhRG" version="15.5.9" type="github">
  <diagram id="1WwecCcROLbbdZEwnvjU" name="Page-1">
    <mxGraphModel dx="3091" dy="2033" grid="0" gridSize="10" guides="1" tooltips="1" connect="1" arrows="1" fold="1" page="0" pageScale="1" pageWidth="850" pageHeight="1100" math="0" shadow="0">
      <root>
        <mxCell id="0" />
        <mxCell id="1" parent="0" />
        <mxCell id="Zsv1OMNNvepAmlLO8EqG-7" style="edgeStyle=none;curved=1;rounded=0;sketch=1;hachureGap=4;orthogonalLoop=1;jettySize=auto;html=1;exitX=1;exitY=0.5;exitDx=0;exitDy=0;entryX=0;entryY=0.5;entryDx=0;entryDy=0;fontFamily=Architects Daughter;fontSource=https%3A%2F%2Ffonts.googleapis.com%2Fcss%3Ffamily%3DArchitects%2BDaughter;fontSize=16;endArrow=open;startSize=14;endSize=14;sourcePerimeterSpacing=8;targetPerimeterSpacing=8;" edge="1" parent="1" source="Zsv1OMNNvepAmlLO8EqG-1" target="Zsv1OMNNvepAmlLO8EqG-2">
          <mxGeometry relative="1" as="geometry" />
        </mxCell>
        <mxCell id="Zsv1OMNNvepAmlLO8EqG-1" value="Client" style="rounded=0;whiteSpace=wrap;html=1;sketch=1;hachureGap=4;pointerEvents=0;fontFamily=Architects Daughter;fontSource=https%3A%2F%2Ffonts.googleapis.com%2Fcss%3Ffamily%3DArchitects%2BDaughter;fontSize=20;" vertex="1" parent="1">
          <mxGeometry x="-684" y="36" width="120" height="60" as="geometry" />
        </mxCell>
        <mxCell id="Zsv1OMNNvepAmlLO8EqG-9" style="edgeStyle=none;curved=1;rounded=0;sketch=1;hachureGap=4;orthogonalLoop=1;jettySize=auto;html=1;exitX=1;exitY=0.5;exitDx=0;exitDy=0;entryX=0;entryY=0.5;entryDx=0;entryDy=0;fontFamily=Architects Daughter;fontSource=https%3A%2F%2Ffonts.googleapis.com%2Fcss%3Ffamily%3DArchitects%2BDaughter;fontSize=16;endArrow=open;startSize=14;endSize=14;sourcePerimeterSpacing=8;targetPerimeterSpacing=8;" edge="1" parent="1" source="Zsv1OMNNvepAmlLO8EqG-2" target="Zsv1OMNNvepAmlLO8EqG-10">
          <mxGeometry relative="1" as="geometry">
            <mxPoint x="1" y="144" as="targetPoint" />
          </mxGeometry>
        </mxCell>
        <mxCell id="Zsv1OMNNvepAmlLO8EqG-2" value="Server" style="rounded=0;whiteSpace=wrap;html=1;sketch=1;hachureGap=4;pointerEvents=0;fontFamily=Architects Daughter;fontSource=https%3A%2F%2Ffonts.googleapis.com%2Fcss%3Ffamily%3DArchitects%2BDaughter;fontSize=20;" vertex="1" parent="1">
          <mxGeometry x="-255" y="36" width="120" height="60" as="geometry" />
        </mxCell>
        <mxCell id="Zsv1OMNNvepAmlLO8EqG-53" style="edgeStyle=none;curved=1;rounded=0;sketch=1;hachureGap=4;orthogonalLoop=1;jettySize=auto;html=1;exitX=0.5;exitY=1;exitDx=0;exitDy=0;entryX=0.5;entryY=0;entryDx=0;entryDy=0;fontFamily=Architects Daughter;fontSource=https%3A%2F%2Ffonts.googleapis.com%2Fcss%3Ffamily%3DArchitects%2BDaughter;fontSize=20;endArrow=open;startSize=14;endSize=14;sourcePerimeterSpacing=8;targetPerimeterSpacing=8;" edge="1" parent="1" source="Zsv1OMNNvepAmlLO8EqG-4" target="Zsv1OMNNvepAmlLO8EqG-18">
          <mxGeometry relative="1" as="geometry" />
        </mxCell>
        <mxCell id="Zsv1OMNNvepAmlLO8EqG-4" value="Build reply&lt;br&gt;with switch list" style="rounded=0;whiteSpace=wrap;html=1;sketch=1;hachureGap=4;pointerEvents=0;fontFamily=Architects Daughter;fontSource=https%3A%2F%2Ffonts.googleapis.com%2Fcss%3Ffamily%3DArchitects%2BDaughter;fontSize=20;" vertex="1" parent="1">
          <mxGeometry x="76" y="313" width="152" height="344" as="geometry" />
        </mxCell>
        <mxCell id="Zsv1OMNNvepAmlLO8EqG-8" value="Send command" style="text;html=1;align=center;verticalAlign=middle;resizable=0;points=[];autosize=1;strokeColor=none;fillColor=none;sketch=1;hachureGap=4;pointerEvents=0;fontFamily=Architects Daughter;fontSource=https%3A%2F%2Ffonts.googleapis.com%2Fcss%3Ffamily%3DArchitects%2BDaughter;fontSize=20;" vertex="1" parent="1">
          <mxGeometry x="-489" y="24" width="147" height="28" as="geometry" />
        </mxCell>
        <mxCell id="Zsv1OMNNvepAmlLO8EqG-12" style="edgeStyle=none;curved=1;rounded=0;sketch=1;hachureGap=4;orthogonalLoop=1;jettySize=auto;html=1;exitX=0.5;exitY=1;exitDx=0;exitDy=0;fontFamily=Architects Daughter;fontSource=https%3A%2F%2Ffonts.googleapis.com%2Fcss%3Ffamily%3DArchitects%2BDaughter;fontSize=16;endArrow=open;startSize=14;endSize=14;sourcePerimeterSpacing=8;targetPerimeterSpacing=8;entryX=0.5;entryY=0;entryDx=0;entryDy=0;" edge="1" parent="1" source="Zsv1OMNNvepAmlLO8EqG-10" target="Zsv1OMNNvepAmlLO8EqG-13">
          <mxGeometry relative="1" as="geometry">
            <mxPoint x="42" y="147" as="targetPoint" />
          </mxGeometry>
        </mxCell>
        <mxCell id="Zsv1OMNNvepAmlLO8EqG-33" style="edgeStyle=none;curved=1;rounded=0;sketch=1;hachureGap=4;orthogonalLoop=1;jettySize=auto;html=1;exitX=1;exitY=0.5;exitDx=0;exitDy=0;entryX=0;entryY=0.5;entryDx=0;entryDy=0;fontFamily=Architects Daughter;fontSource=https%3A%2F%2Ffonts.googleapis.com%2Fcss%3Ffamily%3DArchitects%2BDaughter;fontSize=20;endArrow=open;startSize=14;endSize=14;sourcePerimeterSpacing=8;targetPerimeterSpacing=8;" edge="1" parent="1" source="Zsv1OMNNvepAmlLO8EqG-10" target="Zsv1OMNNvepAmlLO8EqG-32">
          <mxGeometry relative="1" as="geometry" />
        </mxCell>
        <mxCell id="Zsv1OMNNvepAmlLO8EqG-10" value="Parse cmd" style="rhombus;whiteSpace=wrap;html=1;sketch=1;hachureGap=4;pointerEvents=0;fontFamily=Architects Daughter;fontSource=https%3A%2F%2Ffonts.googleapis.com%2Fcss%3Ffamily%3DArchitects%2BDaughter;fontSize=20;" vertex="1" parent="1">
          <mxGeometry x="-15" y="10.5" width="114" height="111" as="geometry" />
        </mxCell>
        <mxCell id="Zsv1OMNNvepAmlLO8EqG-51" style="edgeStyle=none;curved=1;rounded=0;sketch=1;hachureGap=4;orthogonalLoop=1;jettySize=auto;html=1;exitX=0.5;exitY=1;exitDx=0;exitDy=0;entryX=0.25;entryY=0;entryDx=0;entryDy=0;fontFamily=Architects Daughter;fontSource=https%3A%2F%2Ffonts.googleapis.com%2Fcss%3Ffamily%3DArchitects%2BDaughter;fontSize=20;endArrow=open;startSize=14;endSize=14;sourcePerimeterSpacing=8;targetPerimeterSpacing=8;" edge="1" parent="1" source="Zsv1OMNNvepAmlLO8EqG-13" target="Zsv1OMNNvepAmlLO8EqG-4">
          <mxGeometry relative="1" as="geometry" />
        </mxCell>
        <mxCell id="Zsv1OMNNvepAmlLO8EqG-13" value="Cmd function" style="rounded=0;whiteSpace=wrap;html=1;sketch=1;hachureGap=4;pointerEvents=0;fontFamily=Architects Daughter;fontSource=https%3A%2F%2Ffonts.googleapis.com%2Fcss%3Ffamily%3DArchitects%2BDaughter;fontSize=20;" vertex="1" parent="1">
          <mxGeometry x="-18" y="189" width="120" height="60" as="geometry" />
        </mxCell>
        <mxCell id="Zsv1OMNNvepAmlLO8EqG-18" value="Send reply" style="rounded=0;whiteSpace=wrap;html=1;sketch=1;hachureGap=4;pointerEvents=0;fontFamily=Architects Daughter;fontSource=https%3A%2F%2Ffonts.googleapis.com%2Fcss%3Ffamily%3DArchitects%2BDaughter;fontSize=20;" vertex="1" parent="1">
          <mxGeometry x="92" y="698" width="120" height="60" as="geometry" />
        </mxCell>
        <mxCell id="Zsv1OMNNvepAmlLO8EqG-20" value="invalid" style="text;html=1;align=center;verticalAlign=middle;resizable=0;points=[];autosize=1;strokeColor=none;fillColor=none;sketch=1;hachureGap=4;pointerEvents=0;fontFamily=Architects Daughter;fontSource=https%3A%2F%2Ffonts.googleapis.com%2Fcss%3Ffamily%3DArchitects%2BDaughter;fontSize=20;" vertex="1" parent="1">
          <mxGeometry x="107" y="10.5" width="60" height="28" as="geometry" />
        </mxCell>
        <mxCell id="Zsv1OMNNvepAmlLO8EqG-21" value="valid params" style="text;html=1;align=center;verticalAlign=middle;resizable=0;points=[];autosize=1;strokeColor=none;fillColor=none;sketch=1;hachureGap=4;pointerEvents=0;fontFamily=Architects Daughter;fontSource=https%3A%2F%2Ffonts.googleapis.com%2Fcss%3Ffamily%3DArchitects%2BDaughter;fontSize=20;" vertex="1" parent="1">
          <mxGeometry x="-108" y="121.5" width="123" height="28" as="geometry" />
        </mxCell>
        <mxCell id="Zsv1OMNNvepAmlLO8EqG-23" value="&lt;h1&gt;&lt;font style=&quot;font-size: 20px&quot;&gt;Server need to know&lt;/font&gt;&lt;/h1&gt;&lt;div&gt;&lt;ul&gt;&lt;li&gt;&lt;font style=&quot;font-size: 20px&quot;&gt;Which client&lt;/font&gt;&lt;/li&gt;&lt;li&gt;&lt;font style=&quot;font-size: 20px&quot;&gt;Reply params&lt;/font&gt;&lt;/li&gt;&lt;li&gt;Reply code&lt;/li&gt;&lt;/ul&gt;&lt;/div&gt;" style="text;html=1;strokeColor=none;fillColor=none;spacing=5;spacingTop=-20;whiteSpace=wrap;overflow=hidden;rounded=0;sketch=1;hachureGap=4;pointerEvents=0;fontFamily=Architects Daughter;fontSource=https%3A%2F%2Ffonts.googleapis.com%2Fcss%3Ffamily%3DArchitects%2BDaughter;fontSize=20;" vertex="1" parent="1">
          <mxGeometry x="-391" y="341" width="229" height="255" as="geometry" />
        </mxCell>
        <mxCell id="Zsv1OMNNvepAmlLO8EqG-28" value="save last cmd in Client class ?" style="text;html=1;strokeColor=#001DBC;fillColor=#0050ef;align=center;verticalAlign=middle;whiteSpace=wrap;rounded=0;sketch=1;hachureGap=4;pointerEvents=0;fontFamily=Architects Daughter;fontSource=https%3A%2F%2Ffonts.googleapis.com%2Fcss%3Ffamily%3DArchitects%2BDaughter;fontSize=20;fontColor=#ffffff;" vertex="1" parent="1">
          <mxGeometry x="-662" y="392" width="207" height="108" as="geometry" />
        </mxCell>
        <mxCell id="Zsv1OMNNvepAmlLO8EqG-29" value="Tableau de pointeur sur fonction pr les cmds ?" style="text;html=1;strokeColor=#001DBC;fillColor=#0050ef;align=center;verticalAlign=middle;whiteSpace=wrap;rounded=0;sketch=1;hachureGap=4;pointerEvents=0;fontFamily=Architects Daughter;fontSource=https%3A%2F%2Ffonts.googleapis.com%2Fcss%3Ffamily%3DArchitects%2BDaughter;fontSize=20;fontColor=#ffffff;" vertex="1" parent="1">
          <mxGeometry x="-105" y="-108" width="137" height="100" as="geometry" />
        </mxCell>
        <mxCell id="Zsv1OMNNvepAmlLO8EqG-37" style="edgeStyle=none;rounded=0;sketch=1;hachureGap=4;orthogonalLoop=1;jettySize=auto;html=1;exitX=1;exitY=0.5;exitDx=0;exitDy=0;entryX=0.5;entryY=0;entryDx=0;entryDy=0;fontFamily=Architects Daughter;fontSource=https%3A%2F%2Ffonts.googleapis.com%2Fcss%3Ffamily%3DArchitects%2BDaughter;fontSize=20;endArrow=open;startSize=14;endSize=14;sourcePerimeterSpacing=8;targetPerimeterSpacing=8;" edge="1" parent="1" source="Zsv1OMNNvepAmlLO8EqG-32" target="Zsv1OMNNvepAmlLO8EqG-36">
          <mxGeometry relative="1" as="geometry">
            <Array as="points">
              <mxPoint x="431" y="66" />
            </Array>
          </mxGeometry>
        </mxCell>
        <mxCell id="Zsv1OMNNvepAmlLO8EqG-41" style="edgeStyle=none;curved=1;rounded=0;sketch=1;hachureGap=4;orthogonalLoop=1;jettySize=auto;html=1;exitX=0.5;exitY=1;exitDx=0;exitDy=0;entryX=0.5;entryY=0;entryDx=0;entryDy=0;fontFamily=Architects Daughter;fontSource=https%3A%2F%2Ffonts.googleapis.com%2Fcss%3Ffamily%3DArchitects%2BDaughter;fontSize=20;endArrow=open;startSize=14;endSize=14;sourcePerimeterSpacing=8;targetPerimeterSpacing=8;" edge="1" parent="1" source="Zsv1OMNNvepAmlLO8EqG-32" target="Zsv1OMNNvepAmlLO8EqG-40">
          <mxGeometry relative="1" as="geometry" />
        </mxCell>
        <mxCell id="Zsv1OMNNvepAmlLO8EqG-32" value="known cmd ?" style="rhombus;whiteSpace=wrap;html=1;sketch=1;hachureGap=4;pointerEvents=0;fontFamily=Architects Daughter;fontSource=https%3A%2F%2Ffonts.googleapis.com%2Fcss%3Ffamily%3DArchitects%2BDaughter;fontSize=20;" vertex="1" parent="1">
          <mxGeometry x="172" y="-3" width="150" height="138" as="geometry" />
        </mxCell>
        <mxCell id="Zsv1OMNNvepAmlLO8EqG-36" value="421 immediatly" style="rounded=0;whiteSpace=wrap;html=1;sketch=1;hachureGap=4;pointerEvents=0;fontFamily=Architects Daughter;fontSource=https%3A%2F%2Ffonts.googleapis.com%2Fcss%3Ffamily%3DArchitects%2BDaughter;fontSize=20;" vertex="1" parent="1">
          <mxGeometry x="377" y="698" width="120" height="60" as="geometry" />
        </mxCell>
        <mxCell id="Zsv1OMNNvepAmlLO8EqG-52" style="edgeStyle=none;curved=1;rounded=0;sketch=1;hachureGap=4;orthogonalLoop=1;jettySize=auto;html=1;exitX=0.5;exitY=1;exitDx=0;exitDy=0;entryX=0.75;entryY=0;entryDx=0;entryDy=0;fontFamily=Architects Daughter;fontSource=https%3A%2F%2Ffonts.googleapis.com%2Fcss%3Ffamily%3DArchitects%2BDaughter;fontSize=20;endArrow=open;startSize=14;endSize=14;sourcePerimeterSpacing=8;targetPerimeterSpacing=8;" edge="1" parent="1" source="Zsv1OMNNvepAmlLO8EqG-40" target="Zsv1OMNNvepAmlLO8EqG-4">
          <mxGeometry relative="1" as="geometry" />
        </mxCell>
        <mxCell id="Zsv1OMNNvepAmlLO8EqG-40" value="" style="rounded=0;whiteSpace=wrap;html=1;sketch=1;hachureGap=4;pointerEvents=0;fontFamily=Architects Daughter;fontSource=https%3A%2F%2Ffonts.googleapis.com%2Fcss%3Ffamily%3DArchitects%2BDaughter;fontSize=20;fillColor=#a20025;fontColor=#ffffff;strokeColor=#6F0000;" vertex="1" parent="1">
          <mxGeometry x="187" y="189" width="120" height="60" as="geometry" />
        </mxCell>
        <mxCell id="Zsv1OMNNvepAmlLO8EqG-42" value="yes but&lt;br&gt;invalid params" style="text;html=1;align=center;verticalAlign=middle;resizable=0;points=[];autosize=1;strokeColor=none;fillColor=none;sketch=1;hachureGap=4;pointerEvents=0;fontFamily=Architects Daughter;fontSource=https%3A%2F%2Ffonts.googleapis.com%2Fcss%3Ffamily%3DArchitects%2BDaughter;fontSize=20;" vertex="1" parent="1">
          <mxGeometry x="252" y="121.5" width="136" height="52" as="geometry" />
        </mxCell>
        <mxCell id="Zsv1OMNNvepAmlLO8EqG-43" value="no" style="text;html=1;align=center;verticalAlign=middle;resizable=0;points=[];autosize=1;strokeColor=none;fillColor=none;sketch=1;hachureGap=4;pointerEvents=0;fontFamily=Architects Daughter;fontSource=https%3A%2F%2Ffonts.googleapis.com%2Fcss%3Ffamily%3DArchitects%2BDaughter;fontSize=20;" vertex="1" parent="1">
          <mxGeometry x="334" y="21" width="31" height="28" as="geometry" />
        </mxCell>
        <mxCell id="Zsv1OMNNvepAmlLO8EqG-45" value="build reply params here ?" style="text;html=1;align=center;verticalAlign=middle;resizable=0;points=[];autosize=1;strokeColor=none;fillColor=none;sketch=1;hachureGap=4;pointerEvents=0;fontFamily=Architects Daughter;fontSource=https%3A%2F%2Ffonts.googleapis.com%2Fcss%3Ffamily%3DArchitects%2BDaughter;fontSize=20;" vertex="1" parent="1">
          <mxGeometry x="-346" y="205" width="248" height="28" as="geometry" />
        </mxCell>
        <mxCell id="Zsv1OMNNvepAmlLO8EqG-54" value="" style="ellipse;whiteSpace=wrap;html=1;sketch=1;hachureGap=4;pointerEvents=0;fontFamily=Architects Daughter;fontSource=https%3A%2F%2Ffonts.googleapis.com%2Fcss%3Ffamily%3DArchitects%2BDaughter;fontSize=20;dashed=1;fillColor=none;" vertex="1" parent="1">
          <mxGeometry x="-380" y="159" width="783" height="139" as="geometry" />
        </mxCell>
        <mxCell id="Zsv1OMNNvepAmlLO8EqG-56" value="" style="shape=flexArrow;endArrow=classic;startArrow=classic;html=1;rounded=0;sketch=1;hachureGap=4;fontFamily=Architects Daughter;fontSource=https%3A%2F%2Ffonts.googleapis.com%2Fcss%3Ffamily%3DArchitects%2BDaughter;fontSize=20;startSize=14;endSize=14;sourcePerimeterSpacing=8;targetPerimeterSpacing=8;fillColor=default;" edge="1" parent="1">
          <mxGeometry width="100" height="100" relative="1" as="geometry">
            <mxPoint x="-189" y="468" as="sourcePoint" />
            <mxPoint x="39" y="468" as="targetPoint" />
            <Array as="points" />
          </mxGeometry>
        </mxCell>
        <mxCell id="Zsv1OMNNvepAmlLO8EqG-66" value="&lt;font color=&quot;#ff9999&quot;&gt;differents cas d&#39;erreurs possibles = differents params&lt;/font&gt;" style="text;html=1;strokeColor=none;fillColor=none;align=left;verticalAlign=middle;whiteSpace=wrap;rounded=0;dashed=1;sketch=1;hachureGap=4;pointerEvents=0;fontFamily=Architects Daughter;fontSource=https%3A%2F%2Ffonts.googleapis.com%2Fcss%3Ffamily%3DArchitects%2BDaughter;fontSize=20;fontColor=#CC0000;" vertex="1" parent="1">
          <mxGeometry x="491" y="134" width="289" height="189" as="geometry" />
        </mxCell>
        <mxCell id="Zsv1OMNNvepAmlLO8EqG-70" style="edgeStyle=none;rounded=0;sketch=1;hachureGap=4;orthogonalLoop=1;jettySize=auto;html=1;exitX=1;exitY=0.5;exitDx=0;exitDy=0;fontFamily=Architects Daughter;fontSource=https%3A%2F%2Ffonts.googleapis.com%2Fcss%3Ffamily%3DArchitects%2BDaughter;fontSize=20;fontColor=#FFFFFF;endArrow=open;startSize=14;endSize=14;sourcePerimeterSpacing=8;targetPerimeterSpacing=8;fillColor=default;" edge="1" parent="1" source="Zsv1OMNNvepAmlLO8EqG-68" target="Zsv1OMNNvepAmlLO8EqG-69">
          <mxGeometry relative="1" as="geometry" />
        </mxCell>
        <mxCell id="Zsv1OMNNvepAmlLO8EqG-68" value="&lt;font color=&quot;#ffffff&quot;&gt;check prefix&lt;/font&gt;" style="whiteSpace=wrap;html=1;sketch=1;hachureGap=4;pointerEvents=0;fontFamily=Architects Daughter;fontSource=https%3A%2F%2Ffonts.googleapis.com%2Fcss%3Ffamily%3DArchitects%2BDaughter;fontSize=20;fontColor=#FF9999;fillColor=none;align=center;" vertex="1" parent="1">
          <mxGeometry x="-23" y="-347" width="168" height="60" as="geometry" />
        </mxCell>
        <mxCell id="Zsv1OMNNvepAmlLO8EqG-72" style="edgeStyle=none;rounded=0;sketch=1;hachureGap=4;orthogonalLoop=1;jettySize=auto;html=1;fontFamily=Architects Daughter;fontSource=https%3A%2F%2Ffonts.googleapis.com%2Fcss%3Ffamily%3DArchitects%2BDaughter;fontSize=20;fontColor=#FFFFFF;endArrow=open;startSize=14;endSize=14;sourcePerimeterSpacing=8;targetPerimeterSpacing=8;fillColor=default;" edge="1" parent="1" source="Zsv1OMNNvepAmlLO8EqG-69" target="Zsv1OMNNvepAmlLO8EqG-71">
          <mxGeometry relative="1" as="geometry" />
        </mxCell>
        <mxCell id="Zsv1OMNNvepAmlLO8EqG-69" value="&lt;font color=&quot;#ffffff&quot;&gt;check command&lt;/font&gt;" style="whiteSpace=wrap;html=1;sketch=1;hachureGap=4;pointerEvents=0;fontFamily=Architects Daughter;fontSource=https%3A%2F%2Ffonts.googleapis.com%2Fcss%3Ffamily%3DArchitects%2BDaughter;fontSize=20;fontColor=#FF9999;fillColor=none;align=center;" vertex="1" parent="1">
          <mxGeometry x="244" y="-347" width="165" height="60" as="geometry" />
        </mxCell>
        <mxCell id="Zsv1OMNNvepAmlLO8EqG-71" value="&lt;font color=&quot;#ffffff&quot;&gt;check params&lt;/font&gt;" style="whiteSpace=wrap;html=1;sketch=1;hachureGap=4;pointerEvents=0;fontFamily=Architects Daughter;fontSource=https%3A%2F%2Ffonts.googleapis.com%2Fcss%3Ffamily%3DArchitects%2BDaughter;fontSize=20;fontColor=#FF9999;fillColor=none;align=center;" vertex="1" parent="1">
          <mxGeometry x="474" y="-343.5" width="165" height="60" as="geometry" />
        </mxCell>
        <mxCell id="Zsv1OMNNvepAmlLO8EqG-76" value="" style="ellipse;whiteSpace=wrap;html=1;sketch=1;hachureGap=4;pointerEvents=0;fontFamily=Architects Daughter;fontSource=https%3A%2F%2Ffonts.googleapis.com%2Fcss%3Ffamily%3DArchitects%2BDaughter;fontSize=20;fontColor=#FFFFFF;fillColor=none;align=center;dashed=1;" vertex="1" parent="1">
          <mxGeometry x="-96.5" y="-429" width="845.5" height="231" as="geometry" />
        </mxCell>
        <mxCell id="Zsv1OMNNvepAmlLO8EqG-81" value="" style="ellipse;whiteSpace=wrap;html=1;sketch=1;hachureGap=4;pointerEvents=0;fontFamily=Architects Daughter;fontSource=https%3A%2F%2Ffonts.googleapis.com%2Fcss%3Ffamily%3DArchitects%2BDaughter;fontSize=20;fontColor=#000000;fillColor=#f0a30a;align=center;dashed=1;strokeColor=#BD7000;opacity=20;" vertex="1" parent="1">
          <mxGeometry x="83" y="-77" width="388" height="282" as="geometry" />
        </mxCell>
        <mxCell id="Zsv1OMNNvepAmlLO8EqG-82" value="" style="endArrow=classic;html=1;rounded=0;sketch=1;hachureGap=4;fontFamily=Architects Daughter;fontSource=https%3A%2F%2Ffonts.googleapis.com%2Fcss%3Ffamily%3DArchitects%2BDaughter;fontSize=20;fontColor=#FFFFFF;startSize=14;endSize=14;sourcePerimeterSpacing=8;targetPerimeterSpacing=8;fillColor=default;entryX=1;entryY=0;entryDx=0;entryDy=0;" edge="1" parent="1" target="Zsv1OMNNvepAmlLO8EqG-81">
          <mxGeometry width="50" height="50" relative="1" as="geometry">
            <mxPoint x="767" y="-67" as="sourcePoint" />
            <mxPoint x="157" y="169" as="targetPoint" />
            <Array as="points" />
          </mxGeometry>
        </mxCell>
        <mxCell id="Zsv1OMNNvepAmlLO8EqG-83" value="si cmd pas dans le tableau de cmd" style="text;html=1;align=center;verticalAlign=middle;resizable=0;points=[];autosize=1;strokeColor=none;fillColor=none;dashed=1;sketch=1;hachureGap=4;pointerEvents=0;fontFamily=Architects Daughter;fontSource=https%3A%2F%2Ffonts.googleapis.com%2Fcss%3Ffamily%3DArchitects%2BDaughter;fontSize=20;fontColor=#FFFFFF;opacity=20;" vertex="1" parent="1">
          <mxGeometry x="780" y="-88" width="327" height="28" as="geometry" />
        </mxCell>
      </root>
    </mxGraphModel>
  </diagram>
</mxfile>
